# xmcd CD database file
#
# Track frame offsets:
#	150
#	20560
#	46385
#	65672
#	90060
#	110532
#	135590
#	164507
#	184000
#	207040
#	230382
#	262830
#
# Disc length: 4038 seconds
#
# Revision: 0
# Processed by: cddbd v1.4PL0 Copyright (c) Steve Scherf et al.
# Submitted via: Feurio! 1.65 - http://www.feurio.com
#
DISCID=970fc40c
DTITLE=Tom Shaka - Hot 'N' Spicey
DYEAR=1992
DGENRE=Blues
TTITLE0=Matchbox Blues
TTITLE1=Crawlin' Kingsnake
TTITLE2=Ain't It A Shame
TTITLE3=You Gotta Move
TTITLE4=God Don't Never Change
TTITLE5=No More Dirty War Blues
TTITLE6=Vegetarian Blues
TTITLE7=Stop Breaking Down
TTITLE8=Slide My Way Back Home
TTITLE9=Abilene Texas Blues
TTITLE10=Sad Letter Blues
TTITLE11=Let's Boogie On
EXTD=ARD Crosscut Records CCD 11036 
EXTT0=
EXTT1=
EXTT2=
EXTT3=
EXTT4=
EXTT5=
EXTT6=
EXTT7=
EXTT8=
EXTT9=
EXTT10=
EXTT11=
PLAYORDER=
